<?xml version="1.0" encoding="utf-8"?>
<!-- Generator: Adobe Illustrator 23.0.3, SVG Export Plug-In . SVG Version: 6.00 Build 0)  -->
<svg version="1.1" id="Capa_1" xmlns="http://www.w3.org/2000/svg" xmlns:xlink="http://www.w3.org/1999/xlink" x="0px" y="0px"
	 viewBox="0 0 512 512" style="enable-background:new 0 0 512 512;" xml:space="preserve">
<style type="text/css">
	.st0{fill:#6C757D;}
</style>
<path class="st0" d="M207,153c6.6,27,22.9,79,29.5,105h-58.3c10-36,23.5-80,28.5-105H207z"/>
<path class="st0" d="M476,0H36C16.1,0,0,16.1,0,36v440c0,19.9,16.1,36,36,36h440c19.9,0,36-16.1,36-36V36C512,16.1,495.9,0,476,0z
	 M306.7,366h-37.1c-1.7,0-2.3-1.2-3-2.7L245.4,295h-75.9l-20.2,67.5c-0.3,2.3-1.3,3.5-3.3,3.5h-33.8c-2.3,0-3-1.2-2.3-3.9
	c17.9-59,48.1-157.3,69.3-223.9c1-3.8,2-7.5,2.7-21c0-1.5,1-2.2,2-2.2h45.8c1.7,0,2,0.2,2.7,1.7c24.5,79,51.4,166.1,76.6,245.9
	C309.4,364.9,308.7,366,306.7,366z M384,362.8c0,1.9-0.7,3.2-2.6,3.2h-33.9c-2,0-2.5-0.9-2.5-3.6V181.6c0-2.3,0.2-3.6,1.9-3.6h34.5
	c2,0,2.6,0.9,2.6,3.6V362.8z M364.1,153.1c-13,0-21.8-9.3-21.8-23.9c0-14.3,9.5-23.9,22.1-23.9c13.4,0,21.5,9.6,21.5,23.9
	C386,143.9,377.2,153.1,364.1,153.1z"/>
<rect x="-534.2" y="-78" class="st0" width="512" height="512"/>
<path class="st0" d="M236.5,258h-58.3c10-36,23.5-80,28.5-105h0.3C213.6,180,229.8,232,236.5,258z"/>
<g id="Layer_1">
</g>
<image style="overflow:visible;" width="68" height="66" xlink:href="1CCB8146.jpg"  transform="matrix(1 0 0 1 -182 224)">
</image>
</svg>
