<svg xmlns="http://www.w3.org/2000/svg" viewBox="0 0 128 128"><defs><style>.cls-1{fill:#fff;}.cls-2{fill:#242734;}.cls-3{fill:#e54e4e;}</style></defs><title>favicon_2</title><g id="Capa_2" data-name="Capa 2"><g id="Capa_1-2" data-name="Capa 1"><rect class="cls-1" x="2.06" y="2.06" width="123.87" height="123.87"/><path class="cls-2" d="M128,128H0V0H128ZM7.53,120.47H120.47V7.53H7.53Z"/><g id="Isotipo"><path id="B" class="cls-2" d="M108.44,93.42a32.52,32.52,0,0,1-32.52,32.52H19.56V113.55H22A9.91,9.91,0,0,0,32,103.64V24.36A9.91,9.91,0,0,0,22,14.45H19.56V2.06H69.73a32.51,32.51,0,0,1,23,55.51,32.12,32.12,0,0,1-6.46,5A32.54,32.54,0,0,1,108.44,93.42Z"/><g id="R"><path class="cls-3" d="M55.79,16.62v94.76A2.45,2.45,0,0,0,57,113.52v0H44.65v0a2.45,2.45,0,0,0,1.23-2.14V16.62a2.45,2.45,0,0,0-1.23-2.14v0H57v0A2.45,2.45,0,0,0,55.79,16.62Z"/><path class="cls-3" d="M88.15,34.05c0,9.39-7,19.69-16.7,19.69,4.78,0,6.12-11.83,6.12-19.64,0-7.51-1-19.65-5.75-19.65C81.47,14.45,88.15,24.78,88.15,34.05Z"/><path class="cls-3" d="M89.11,113.55H86.94c-6.84,0-11.46-4.94-11.46-12.25V78.12c0-1.83-1.39-4.31-3.1-4.31h2.17C81.39,73.81,86,78.75,86,86.06v23.18C86,111.07,87.4,113.55,89.11,113.55Z"/></g></g></g></g></svg>