<?xml version="1.0" encoding="utf-8"?>
<!-- Generator: Adobe Illustrator 23.0.3, SVG Export Plug-In . SVG Version: 6.00 Build 0)  -->
<svg version="1.1" id="Capa_1" xmlns="http://www.w3.org/2000/svg" xmlns:xlink="http://www.w3.org/1999/xlink" x="0px" y="0px"
	 viewBox="0 0 512 512" style="enable-background:new 0 0 512 512;" xml:space="preserve">
<style type="text/css">
	.st0{fill:#6C757D;}
	.st1{fill:#FFFFFF;}
</style>
<path class="st0" d="M512,35.8v440.4c0,19.8-16,35.8-35.8,35.8H35.8C16,512,0,496,0,476.2V35.8C0,16,16,0,35.8,0h440.4
	C496,0,512,16,512,35.8z"/>
<g>
	<path class="st1" d="M137.2,118.7c13.8-2.4,32.1-4.5,55.8-4.5c28.2,0,49.5,6,63.3,18.3C269.2,143.6,277,161,277,182
		c0,55.8-44.4,75-85.8,75c-7.2,0-13.8-0.3-19.5-1.5v90h-34.5V118.7z M171.7,227.6c5.1,1.5,11.4,1.8,19.5,1.8c31.8,0,51-16.5,51-45.9
		c0-27.9-19.2-42-47.1-42c-10.8,0-18.9,1.2-23.4,2.1V227.6z"/>
	<path class="st1" d="M394,210.8c-3-0.6-6.3-0.9-10.2-0.9c-23.4,0-38.1,19.2-38.1,48v87.6h-34.8V230.6c0-19.2-0.3-35.1-1.2-50.4H340
		l1.2,30.3h1.2c7.5-21,24.9-33.9,42.9-33.9c3.3,0,5.7,0.3,8.7,0.9V210.8z"/>
</g>
</svg>
