<?xml version="1.0" encoding="utf-8"?>
<!-- Generator: Adobe Illustrator 23.0.3, SVG Export Plug-In . SVG Version: 6.00 Build 0)  -->
<svg version="1.1" id="Capa_1" xmlns="http://www.w3.org/2000/svg" xmlns:xlink="http://www.w3.org/1999/xlink" x="0px" y="0px"
	 viewBox="0 0 512 512" style="enable-background:new 0 0 512 512;" xml:space="preserve">
<style type="text/css">
	.st0{fill:#6C757D;}
</style>
<path class="st0" d="M224.8,192.2c0,38.5-25.1,46-51.3,46c-13.9,0-19.5-0.4-21.5-0.8v-91.1c2-0.4,11.8-0.8,24.8-0.8
	C207.9,145.5,224.8,161.3,224.8,192.2z"/>
<path class="st0" d="M476.2,0H35.8C16,0,0,16,0,35.8v440.4C0,496,16,512,35.8,512h440.4c19.8,0,35.8-16,35.8-35.8V35.8
	C512,16,496,0,476.2,0z M172.4,275H152v87.3c0,2.3-0.8,2.7-2.5,2.7h-35.1c-1.7,0-2.4-0.4-2.4-2.3V111.2c0-1.9,0.3-2.7,2-2.7
	c12.6-0.4,37.4-0.7,62.5-0.7c65,0,89.8,37.8,90.1,82.5C266.7,251.7,221.1,275,172.4,275z M345,370.4c-17.3,0-38.8-1.6-52.5-11.7
	c-1.3-0.8-1.6-1.9-1.6-3.9v-35.5c0-1.9,0.9-2.7,1.9-1.9c16.9,12.7,35.5,16.3,52.5,16.3c15,0,20.1-10,20.1-18.5
	c0-10-3.7-15.8-27.1-27c-33.6-16.2-47.6-30.1-47.6-58.2c0-31.2,23.3-57,61.8-57c19.9,0,33.7,0.5,42.8,6.7c1.6,1.5,1.6,2.7,1.6,5
	v31.6c0,2.3-1,3.5-2.6,2.3c-11.7-7.7-28-10.2-45-10.2c-16,0-20.2,10-20.2,17.3c0,9.3,4.3,14.3,28.7,25.8
	c33.6,16.2,47.9,30.5,47.9,58.2C405.9,348.5,380.9,370.4,345,370.4z"/>
</svg>
